<?xml version="1.0" encoding="utf-8"?>
<!-- Generator: Adobe Illustrator 16.0.0, SVG Export Plug-In . SVG Version: 6.00 Build 0)  -->
<!DOCTYPE svg PUBLIC "-//W3C//DTD SVG 1.1//EN" "http://www.w3.org/Graphics/SVG/1.1/DTD/svg11.dtd">
<svg version="1.1" id="Layer_1" xmlns="http://www.w3.org/2000/svg" xmlns:xlink="http://www.w3.org/1999/xlink" x="0px" y="0px"
	 width="150px" height="150px" viewBox="0 0 150 150" enable-background="new 0 0 150 150" xml:space="preserve">
<rect fill="#FFFFFF" fill-opacity="0" width="150" height="150"/>
<g>
	<path fill="#5E80CC" stroke="#454A55" stroke-width="0.5" stroke-miterlimit="10" d="M81.663,28.857
		c-2.146-4.125-6.422-6.721-11.063-6.721H13.319C8.727,22.136,5,25.863,5,30.455v4.458h79.809L81.663,28.857z"/>
	<g>
		<path fill="#5E80CC" stroke="#454A55" stroke-width="0.5" stroke-miterlimit="10" d="M27.842,99.38
			c-1.125-0.346-2.484-0.519-4.078-0.519h-3.445v17.49h3.955c0.867,0,1.547-0.023,2.039-0.07s1.002-0.164,1.529-0.352
			s0.984-0.451,1.371-0.791c1.746-1.477,2.619-4.02,2.619-7.629c0-2.543-0.384-4.447-1.151-5.713S28.967,99.726,27.842,99.38z"/>
		<path fill="#5E80CC" stroke="#454A55" stroke-width="0.5" stroke-miterlimit="10" d="M136.698,42.4H5v77.145
			c0,4.594,3.727,8.319,8.319,8.319h123.363c4.592,0,8.318-3.729,8.318-8.319V50.718C145.018,46.126,141.29,42.4,136.698,42.4z
			 M36.719,111.781c-0.27,1.277-0.686,2.429-1.248,3.454s-1.283,1.942-2.162,2.751c-0.691,0.621-1.447,1.119-2.268,1.494
			s-1.702,0.639-2.646,0.791s-2.007,0.229-3.19,0.229h-6.803c-0.949,0-1.664-0.144-2.145-0.431s-0.794-0.691-0.94-1.213
			s-0.22-1.198-0.22-2.03V97.93c0-1.125,0.252-1.939,0.756-2.443s1.318-0.756,2.443-0.756H25.1c1.77,0,3.287,0.164,4.553,0.492
			s2.414,0.943,3.445,1.846c2.684,2.297,4.025,5.789,4.025,10.477C37.123,109.092,36.988,110.504,36.719,111.781z"/>
	</g>
</g>
</svg>
