<?xml version="1.0" encoding="utf-8"?>
<!-- Generator: Adobe Illustrator 16.0.0, SVG Export Plug-In . SVG Version: 6.00 Build 0)  -->
<!DOCTYPE svg PUBLIC "-//W3C//DTD SVG 1.1//EN" "http://www.w3.org/Graphics/SVG/1.1/DTD/svg11.dtd">
<svg version="1.1" id="Layer_1" xmlns="http://www.w3.org/2000/svg" xmlns:xlink="http://www.w3.org/1999/xlink" x="0px" y="0px"
	 width="100px" height="100px" viewBox="0 0 100 100" enable-background="new 0 0 100 100" xml:space="preserve">
<g>
	<path fill="#5F6570" d="M25,74.508c5.004,0,9.061-4.926,9.061-11.004c0-6.076-1.332-11.004-9.061-11.004
		c-7.728,0-9.06,4.928-9.06,11.004C15.94,69.582,19.998,74.508,25,74.508z"/>
	<path fill="#5F6570" d="M7.889,91.311C7.888,90.939,7.885,91.205,7.889,91.311L7.889,91.311z"/>
	<path fill="#5F6570" d="M42.112,91.6C42.117,91.498,42.112,90.896,42.112,91.6L42.112,91.6z"/>
	<path fill="#5F6570" d="M42.092,90.865c-0.168-10.588-1.55-13.604-12.132-15.514c0,0-1.489,1.898-4.96,1.898
		c-3.472,0-4.961-1.898-4.961-1.898C9.575,77.242,8.107,80.213,7.915,90.521c-0.016,0.842-0.023,0.887-0.026,0.787
		C7.89,91.494,7.89,91.83,7.89,92.422c0,0,2.519,5.078,17.11,5.078s17.11-5.078,17.11-5.078c0-0.379,0-0.645,0-0.824
		C42.108,91.66,42.104,91.543,42.092,90.865z"/>
</g>
<g>
	<circle fill="#5F6570" cx="9.652" cy="6.975" r="4.438"/>
	<path fill="#5F6570" d="M4.702,26.962h0.44v8.802c0,1.21,0.99,2.2,2.201,2.2h4.621c1.21,0,2.201-0.99,2.201-2.2v-0.513
		c-0.403-0.771-0.66-1.65-0.66-2.567V21.167c0-2.237,1.357-4.181,3.301-5.024v-0.88c0-1.21-0.99-2.2-2.201-2.2H4.702
		c-1.21,0-2.201,0.99-2.201,2.2v9.499C2.5,25.973,3.455,26.962,4.702,26.962z"/>
	<circle fill="#5F6570" cx="40.385" cy="6.975" r="4.438"/>
	<path fill="#5F6570" d="M33.196,15.227v0.88c1.945,0.843,3.302,2.788,3.302,5.024v11.48c0,0.917-0.22,1.797-0.659,2.567v0.514
		c0,1.21,0.99,2.201,2.2,2.201h4.621c1.21,0,2.2-0.99,2.2-2.201V26.89h0.439c1.21,0,2.2-0.99,2.2-2.2v-9.462
		c0-1.21-0.99-2.2-2.2-2.2h-9.902C34.188,13.026,33.196,14.017,33.196,15.227z"/>
	<path fill="#5F6570" d="M16.84,21.167L16.84,21.167v3.594v7.922c0,1.21,0.99,2.201,2.201,2.201h0.843v10.379
		c0,1.209,0.99,2.2,2.201,2.2h5.905c1.21,0,2.199-0.991,2.199-2.2V34.848h0.845c1.21,0,2.2-0.99,2.2-2.201v-7.885v-3.594l0,0
		c0-1.21-0.99-2.201-2.2-2.201H19.042C17.793,18.966,16.84,19.958,16.84,21.167z"/>
	<circle fill="#5F6570" cx="25.02" cy="12.035" r="5.098"/>
</g>
<g>
	<path fill="#EF5455" d="M75,74.489c5.004,0,9.061-4.926,9.061-11.004c0-6.076-1.332-11.004-9.061-11.004
		c-7.728,0-9.06,4.928-9.06,11.004C65.94,69.563,69.998,74.489,75,74.489z"/>
	<path fill="#EF5455" d="M57.889,91.292C57.888,90.921,57.885,91.187,57.889,91.292L57.889,91.292z"/>
	<path fill="#EF5455" d="M92.111,91.581C92.117,91.479,92.111,90.878,92.111,91.581L92.111,91.581z"/>
	<path fill="#EF5455" d="M92.092,90.847c-0.168-10.588-1.549-13.604-12.131-15.514c0,0-1.49,1.898-4.961,1.898
		c-3.472,0-4.961-1.898-4.961-1.898c-10.465,1.891-11.932,4.861-12.125,15.17c-0.016,0.842-0.022,0.887-0.025,0.787
		c0.001,0.186,0.001,0.521,0.001,1.113c0,0,2.519,5.078,17.11,5.078c14.59,0,17.109-5.078,17.109-5.078c0-0.379,0-0.645,0-0.824
		C92.107,91.642,92.104,91.524,92.092,90.847z"/>
</g>
<g>
	<circle fill="#EF5455" cx="59.652" cy="6.957" r="4.438"/>
	<path fill="#EF5455" d="M54.701,26.944h0.44v8.802c0,1.21,0.989,2.2,2.2,2.2h4.621c1.211,0,2.201-0.99,2.201-2.2v-0.513
		c-0.402-0.771-0.66-1.65-0.66-2.567V21.149c0-2.237,1.357-4.182,3.302-5.024v-0.88c0-1.21-0.99-2.2-2.201-2.2h-9.903
		c-1.209,0-2.201,0.99-2.201,2.2v9.499C52.5,25.954,53.455,26.944,54.701,26.944z"/>
	<circle fill="#EF5455" cx="90.385" cy="6.957" r="4.438"/>
	<path fill="#EF5455" d="M83.195,15.208v0.88c1.945,0.844,3.303,2.788,3.303,5.024v11.479c0,0.917-0.221,1.798-0.66,2.567v0.514
		c0,1.21,0.99,2.201,2.201,2.201h4.621c1.209,0,2.199-0.99,2.199-2.201v-8.802h0.439c1.211,0,2.201-0.99,2.201-2.2v-9.462
		c0-1.21-0.99-2.2-2.201-2.2h-9.902C84.188,13.008,83.195,13.998,83.195,15.208z"/>
	<path fill="#EF5455" d="M66.84,21.149L66.84,21.149v3.594v7.922c0,1.21,0.99,2.201,2.201,2.201h0.844v10.379
		c0,1.209,0.99,2.2,2.201,2.2h5.904c1.211,0,2.199-0.991,2.199-2.2V34.829h0.846c1.209,0,2.199-0.99,2.199-2.201v-7.885v-3.594l0,0
		c0-1.21-0.99-2.201-2.199-2.201H69.041C67.793,18.948,66.84,19.939,66.84,21.149z"/>
	<circle fill="#EF5455" cx="75.02" cy="12.017" r="5.098"/>
</g>
</svg>
