<?xml version="1.0" encoding="utf-8"?>
<!-- Generator: Adobe Illustrator 16.0.0, SVG Export Plug-In . SVG Version: 6.00 Build 0)  -->
<!DOCTYPE svg PUBLIC "-//W3C//DTD SVG 1.1//EN" "http://www.w3.org/Graphics/SVG/1.1/DTD/svg11.dtd">
<svg version="1.1" id="Layer_1" xmlns="http://www.w3.org/2000/svg" xmlns:xlink="http://www.w3.org/1999/xlink" x="0px" y="0px"
	 width="100px" height="200px" viewBox="0 0 100 200" enable-background="new 0 0 100 200" xml:space="preserve">
<g>
	<path fill="#5F6670" d="M26.904,161.815c-0.613-1.179-1.835-1.92-3.161-1.92H7.377c-1.312,0-2.377,1.065-2.377,2.377v1.274h22.803
		L26.904,161.815z"/>
	<g>
		<path fill="#5F6670" d="M11.526,181.965c-0.321-0.098-0.71-0.147-1.165-0.147H9.377v4.997h1.13c0.248,0,0.442-0.006,0.583-0.02
			c0.141-0.014,0.286-0.047,0.437-0.102c0.15-0.054,0.281-0.129,0.392-0.227c0.499-0.422,0.748-1.148,0.748-2.18
			c0-0.727-0.109-1.271-0.329-1.631C12.118,182.293,11.848,182.063,11.526,181.965z"/>
		<path fill="#5F6670" d="M42.628,165.686H5v22.042c0,1.313,1.065,2.377,2.377,2.377h35.246c1.313,0,2.377-1.065,2.377-2.377
			v-19.665C45.005,166.75,43.94,165.686,42.628,165.686z M14.063,185.508c-0.077,0.365-0.196,0.695-0.356,0.988
			c-0.161,0.293-0.367,0.555-0.618,0.785c-0.198,0.178-0.414,0.32-0.648,0.428c-0.235,0.106-0.486,0.182-0.756,0.226
			c-0.27,0.043-0.574,0.065-0.912,0.065H8.829c-0.271,0-0.476-0.041-0.613-0.123c-0.138-0.082-0.227-0.197-0.269-0.348
			s-0.063-0.342-0.063-0.58v-5.398c0-0.321,0.072-0.555,0.216-0.698c0.144-0.146,0.376-0.216,0.698-0.216h1.944
			c0.506,0,0.939,0.047,1.301,0.141s0.69,0.27,0.984,0.527c0.767,0.656,1.15,1.654,1.15,2.994
			C14.178,184.74,14.139,185.144,14.063,185.508z"/>
	</g>
</g>
<g>
	<rect x="5" y="5" fill="#5F6670" width="17.13" height="17.13"/>
	<rect x="27.87" y="5" fill="#5F6670" width="17.13" height="17.13"/>
	<rect x="27.87" y="27.869" fill="#5F6670" width="17.13" height="17.131"/>
	<rect x="5" y="27.869" fill="#5F6670" width="17.13" height="17.131"/>
</g>
<g>
	<path fill="#FFFFFF" d="M76.904,161.815c-0.613-1.179-1.836-1.92-3.162-1.92H57.377c-1.313,0-2.377,1.063-2.377,2.377v1.272h22.803
		L76.904,161.815z"/>
	<g>
		<path fill="#FFFFFF" d="M61.525,181.965c-0.32-0.098-0.709-0.147-1.164-0.147h-0.984v4.997h1.13c0.247,0,0.441-0.006,0.582-0.02
			c0.142-0.014,0.286-0.047,0.438-0.102c0.149-0.054,0.281-0.129,0.392-0.227c0.499-0.422,0.748-1.148,0.748-2.18
			c0-0.728-0.108-1.271-0.329-1.633C62.118,182.293,61.848,182.063,61.525,181.965z"/>
		<path fill="#FFFFFF" d="M92.628,165.686H55v22.041c0,1.313,1.064,2.377,2.377,2.377h35.246c1.313,0,2.377-1.064,2.377-2.377
			v-19.664C95.006,166.75,93.939,165.686,92.628,165.686z M64.063,185.508c-0.076,0.365-0.195,0.695-0.355,0.988
			c-0.161,0.293-0.367,0.555-0.618,0.785c-0.196,0.178-0.413,0.319-0.647,0.428c-0.234,0.106-0.485,0.182-0.756,0.226
			c-0.271,0.044-0.576,0.065-0.914,0.065h-1.942c-0.271,0-0.476-0.041-0.613-0.123c-0.137-0.082-0.228-0.197-0.269-0.348
			c-0.041-0.148-0.063-0.343-0.063-0.58v-5.398c0-0.32,0.072-0.553,0.216-0.697c0.145-0.145,0.377-0.217,0.698-0.217h1.943
			c0.506,0,0.938,0.047,1.301,0.141s0.69,0.27,0.983,0.527c0.769,0.656,1.15,1.654,1.15,2.994
			C64.178,184.74,64.139,185.145,64.063,185.508z"/>
	</g>
</g>
<g>
	<rect x="55" y="5" fill="#FFFFFF" width="17.13" height="17.13"/>
	<rect x="77.869" y="5" fill="#FFFFFF" width="17.131" height="17.13"/>
	<rect x="77.869" y="27.869" fill="#FFFFFF" width="17.131" height="17.131"/>
	<rect x="55" y="27.869" fill="#FFFFFF" width="17.13" height="17.131"/>
</g>
<g>
	<g id="share">
		<path fill="#5F6670" d="M40,85c-1.216,0-2.29,0.489-3.154,1.206l-7.623-5.438c0.484-0.996,0.776-2.091,0.776-3.268
			c0-1.616-0.528-3.109-1.396-4.331l8.917-8.922C38.261,64.684,39.078,65,40,65c2.764,0,5-2.236,5-5s-2.236-5-5-5s-5,2.236-5,5
			c0,0.923,0.317,1.739,0.752,2.479L26.836,71.4C25.605,70.521,24.122,70,22.5,70c-2.861,0-5.322,1.626-6.587,3.989l-6.02-2.013
			C9.649,70.854,8.696,70,7.5,70C6.119,70,5,71.119,5,72.5S6.119,75,7.5,75c0.63,0,1.191-0.254,1.631-0.641l5.986,1.998
			C15.059,76.732,15,77.109,15,77.5c0,4.141,3.36,7.5,7.5,7.5c2.06,0,3.931-0.835,5.288-2.184l7.574,5.406
			C35.146,88.777,35,89.37,35,90c0,2.759,2.236,5,5,5s5-2.241,5-5S42.764,85,40,85z"/>
	</g>
</g>
<g>
	<g id="share_1_">
		<path fill="#FFFFFF" d="M90,85c-1.217,0-2.29,0.489-3.154,1.206l-7.621-5.438C79.707,79.771,80,78.677,80,77.5
			c0-1.616-0.527-3.109-1.396-4.331l8.916-8.922C88.262,64.684,89.078,65,90,65c2.764,0,5-2.236,5-5s-2.236-5-5-5s-5,2.236-5,5
			c0,0.923,0.316,1.739,0.752,2.479L76.836,71.4c-1.23-0.879-2.715-1.4-4.336-1.4c-2.861,0-5.322,1.626-6.588,3.989l-6.02-2.013
			C59.648,70.854,58.695,70,57.5,70c-1.381,0-2.5,1.119-2.5,2.5s1.119,2.5,2.5,2.5c0.63,0,1.191-0.254,1.631-0.641l5.986,1.998
			C65.059,76.732,65,77.109,65,77.5c0,4.141,3.359,7.5,7.5,7.5c2.061,0,3.932-0.835,5.287-2.184l7.574,5.406
			C85.146,88.777,85,89.37,85,90c0,2.759,2.236,5,5,5s5-2.241,5-5S92.764,85,90,85z"/>
	</g>
</g>
<g>
	<path fill="#5F6670" d="M42.078,111.99c-9.828-5.762-17.06-6.99-17.06-6.99s-0.008,0.002-0.019,0.003
		c-0.011-0.001-0.019-0.003-0.019-0.003s-7.232,1.229-17.06,6.99c0,0-1.303,29.089,17.06,33.01c0.006-0.002,0.012-0.003,0.019-0.005
		c0.006,0.002,0.012,0.003,0.019,0.005C43.381,141.079,42.078,111.99,42.078,111.99z M25.02,107.471
		c1.609,0.347,7.258,1.794,14.626,5.927c-0.032,5.372-0.951,25.699-14.626,29.116V107.471L25.02,107.471z"/>
</g>
<g>
	<path fill="#FFFFFF" d="M92.078,111.99c-9.828-5.762-17.06-6.99-17.06-6.99s-0.008,0.002-0.019,0.003
		c-0.011-0.001-0.019-0.003-0.019-0.003s-7.232,1.229-17.06,6.99c0,0-1.303,29.089,17.06,33.01c0.006-0.002,0.012-0.003,0.019-0.005
		c0.006,0.002,0.012,0.003,0.019,0.005C93.381,141.079,92.078,111.99,92.078,111.99z M75.02,107.471
		c1.609,0.347,7.258,1.794,14.626,5.927c-0.032,5.372-0.951,25.699-14.626,29.116V107.471L75.02,107.471z"/>
</g>
</svg>
