<?xml version="1.0" encoding="utf-8"?>
<!-- Generator: Adobe Illustrator 16.0.0, SVG Export Plug-In . SVG Version: 6.00 Build 0)  -->
<!DOCTYPE svg PUBLIC "-//W3C//DTD SVG 1.1//EN" "http://www.w3.org/Graphics/SVG/1.1/DTD/svg11.dtd">
<svg version="1.1" id="Layer_1" xmlns="http://www.w3.org/2000/svg" xmlns:xlink="http://www.w3.org/1999/xlink" x="0px" y="0px"
	 width="50px" height="100px" viewBox="0 0 50 100" enable-background="new 0 0 50 100" xml:space="preserve">
<g>
	<path fill="#5F6670" d="M35,22.5V15c0-5.513-4.484-10-10-10c-5.514,0-10,4.487-10,10v7.5c-2.762,0-5,2.239-5,5V40
		c0,2.762,2.238,5,5,5h20c2.761,0,5-2.238,5-5V27.5C40,24.739,37.761,22.5,35,22.5z M26.25,34.616v4.134
		c0,0.691-0.559,1.25-1.25,1.25s-1.25-0.559-1.25-1.25v-4.134c-0.734-0.434-1.25-1.201-1.25-2.116c0-1.382,1.12-2.5,2.5-2.5
		c1.381,0,2.5,1.118,2.5,2.5C27.5,33.416,26.983,34.182,26.25,34.616z M30,22.5H20V15c0-2.759,2.242-5,5-5c2.757,0,5,2.241,5,5V22.5
		L30,22.5z"/>
</g>
<g>
	<path fill="#FFFFFF" d="M35,72.5V65c0-5.513-4.484-10-10-10c-5.514,0-10,4.487-10,10v7.5c-2.762,0-5,2.239-5,5V90
		c0,2.762,2.238,5,5,5h20c2.761,0,5-2.238,5-5V77.5C40,74.738,37.761,72.5,35,72.5z M26.25,84.616v4.134
		c0,0.691-0.559,1.25-1.25,1.25s-1.25-0.559-1.25-1.25v-4.134c-0.734-0.435-1.25-1.2-1.25-2.116c0-1.382,1.12-2.5,2.5-2.5
		c1.381,0,2.5,1.118,2.5,2.5C27.5,83.416,26.983,84.182,26.25,84.616z M30,72.5H20V65c0-2.759,2.242-5,5-5c2.757,0,5,2.241,5,5V72.5
		L30,72.5z"/>
</g>
</svg>
